<svg width="42" height="38" viewBox="0 0 42 38" fill="none" xmlns="http://www.w3.org/2000/svg">
<path d="M29 14H33C33.8333 14 34.542 13.7087 35.126 13.126C35.71 12.5433 36.0013 11.8347 36 11V9C36 8.16667 35.7087 7.45867 35.126 6.876C34.5433 6.29333 33.8347 6.00133 33 6H28C27.4333 6 26.9587 6.192 26.576 6.576C26.1933 6.96 26.0013 7.43467 26 8V16.5C26 16.9333 26.142 17.292 26.426 17.576C26.71 17.86 27.068 18.0013 27.5 18C27.932 17.9987 28.2907 17.8567 28.576 17.574C28.8613 17.2913 29.0027 16.9333 29 16.5V14ZM29 11V9H33V11H29ZM22 24C20.9 24 19.9587 23.6087 19.176 22.826C18.3933 22.0433 18.0013 21.1013 18 20V4C18 2.9 18.392 1.95867 19.176 1.176C19.96 0.393333 20.9013 0.00133333 22 0H38C39.1 0 40.042 0.392 40.826 1.176C41.61 1.96 42.0013 2.90133 42 4V20C42 21.1 41.6087 22.042 40.826 22.826C40.0433 23.61 39.1013 24.0013 38 24H32V36C32 36.5667 31.808 37.042 31.424 37.426C31.04 37.81 30.5653 38.0013 30 38C29.4347 37.9987 28.96 37.8067 28.576 37.424C28.192 37.0413 28 36.5667 28 36V24H22ZM12 38C11.4333 38 10.9587 37.808 10.576 37.424C10.1933 37.04 10.0013 36.5653 10 36V34H2.00001C1.43334 34 0.958674 33.808 0.576007 33.424C0.19334 33.04 0.00134023 32.5653 6.89654e-06 32V18C6.89654e-06 17.4333 0.192007 16.9587 0.576007 16.576C0.960007 16.1933 1.43467 16.0013 2.00001 16H10.4L8.30001 10H2.00001C1.43334 10 0.958674 9.808 0.576007 9.424C0.19334 9.04 0.00134023 8.56533 6.89654e-06 8C-0.00132644 7.43467 0.190674 6.96 0.576007 6.576C0.96134 6.192 1.43601 6 2.00001 6H9.00001C9.63334 6 10.2087 6.18333 10.726 6.55C11.2433 6.91667 11.6013 7.4 11.8 8L15.8 19.35C15.8667 19.55 15.9167 19.7667 15.95 20C15.9833 20.2333 16 20.4667 16 20.7V36C16 36.5667 15.808 37.042 15.424 37.426C15.04 37.81 14.5653 38.0013 14 38H12ZM7.00001 28C7.83334 28 8.54201 27.7087 9.12601 27.126C9.71001 26.5433 10.0013 25.8347 10 25C9.99867 24.1653 9.70734 23.4573 9.12601 22.876C8.54467 22.2947 7.83601 22.0027 7.00001 22C6.16401 21.9973 5.45601 22.2893 4.87601 22.876C4.29601 23.4627 4.00401 24.1707 4.00001 25C3.99601 25.8293 4.28801 26.538 4.87601 27.126C5.46401 27.714 6.17201 28.0053 7.00001 28Z" fill="#BD6CE3"/>
</svg>
