<svg width="95" height="8" viewBox="0 0 95 8" fill="none" xmlns="http://www.w3.org/2000/svg">
<path d="M94.7824 3.7167C93.5456 4.7036 92.15 4.80482 90.8046 5.00726C83.1082 6.12912 75.3448 6.41591 67.5899 6.69427C56.3836 7.09072 45.169 7.14976 33.9627 6.8461C23.5253 6.56774 13.0628 6.49183 2.72559 4.7036C1.88157 4.5602 0.527797 4.59393 0.511083 3.70825C0.486013 2.79727 1.84815 2.8057 2.6671 2.64544C8.40811 1.54045 14.241 1.27052 20.0656 0.983731C31.1215 0.443887 42.1857 0.292062 53.2499 0.410153C65.7013 0.545114 78.1443 0.696944 90.5121 2.33335C91.9328 2.51892 93.5205 2.44299 94.7824 3.70825V3.7167Z" fill="#9A7FD5"/>
</svg>
