<svg width="88" height="38" viewBox="0 0 88 38" fill="none" xmlns="http://www.w3.org/2000/svg">
<path d="M26.942 15.3168C27.2261 14.9288 26.9921 14.5492 26.967 14.1781C26.8333 11.8669 27.6773 10.2811 29.4824 9.4882C31.3375 8.67844 33.2345 9.1508 34.7387 10.8716C37.3961 13.925 40.2374 16.7677 43.6051 19.0283C47.4659 21.6263 51.5773 23.735 55.8727 25.4979C56.5495 25.7763 56.9674 25.8522 57.4855 25.0593C58.6888 23.2289 60.8616 22.8409 62.7836 23.9796C63.9368 24.6629 65.0566 25.4136 66.1263 26.2149C69.2015 28.5177 72.7865 29.1335 76.4551 29.5974C79.2211 29.9432 81.9705 30.4325 84.7114 30.9386C86.2407 31.2169 87.1516 32.2713 87.4357 33.7812C87.6864 35.1476 87.2769 36.337 86.1906 37.2395C85.522 37.8047 82.8774 38.0169 82 38C67.6266 37.6963 55.1038 37.7541 40.839 35.5947C28.981 33.8065 17.8917 30.0866 8.68269 21.913C6.33447 19.8296 4.13667 17.6027 2.17286 15.1397C-1.20322 10.8884 -0.584831 5.03449 3.56006 1.98944C7.9473 -1.23276 13.6298 -0.119337 16.6131 4.6296C18.9948 8.42538 21.8444 11.7741 25.3793 14.5071C25.8389 14.8613 26.2316 15.4349 26.942 15.3168Z" fill="#FDFDFE"/>
</svg>
