<svg width="47" height="70" viewBox="0 0 47 70" fill="none" xmlns="http://www.w3.org/2000/svg">
<g clip-path="url(#clip0_303_551)">
<path d="M46.4265 26.549C45.9305 25.9891 44.9498 25.7618 44.1439 25.5733C42.4755 25.1797 41.9288 24.2318 42.0077 22.5742C42.1317 19.8079 42.0416 17.0305 42.0416 14.2587C42.0416 9.15851 39.6406 5.39989 35.2331 2.92741C31.4794 0.826361 27.5397 -0.0828025 23.4929 0.00589633C19.4462 -0.0828025 15.5065 0.826361 11.7584 2.92741C7.35095 5.39989 4.94431 9.15851 4.94994 14.2587C4.94994 17.0305 4.85413 19.8079 4.98376 22.5742C5.05703 24.2373 4.51032 25.1853 2.84765 25.5733C2.03605 25.7618 1.05535 25.9891 0.565007 26.549C-0.0493357 27.242 -0.229693 28.3064 0.362105 29.0659C1.38789 30.3908 3.69308 29.5038 5.05703 29.3098C5.05703 31.5938 5.06267 33.656 5.05703 35.7238C5.02885 43.6679 5.09085 51.612 4.91049 59.5561C4.83159 63.0597 6.29135 65.5543 9.33488 66.9181C14.0354 69.0247 18.7642 70.0336 23.4986 69.9948C28.233 70.0336 32.9617 69.0247 37.6623 66.9181C40.7114 65.5543 42.1656 63.0597 42.0867 59.5561C41.9063 51.6175 41.9739 43.6679 41.9401 35.7238C41.9345 33.6616 41.9401 31.5938 41.9401 29.3098C43.3041 29.5038 45.6093 30.3908 46.635 29.0659C47.2268 28.3008 47.0465 27.242 46.4321 26.549H46.4265ZM30.1887 6.08731C30.3071 5.87111 30.4931 5.7048 30.6791 5.54403C30.9778 5.28902 31.2878 5.03955 31.6541 4.89542C31.7443 4.86216 31.8345 4.83998 31.9303 4.82335C33.2153 4.60715 35.0696 5.94317 35.9489 6.62505C37.1156 7.53421 38.5922 9.00328 38.333 10.6165C38.2146 11.3261 37.7863 12.2519 37.0028 12.396C35.1429 12.8617 30.5551 8.69838 30.1211 7.14061C30.0196 6.79136 30.0196 6.39776 30.1943 6.08177L30.1887 6.08731ZM23.9607 28.9328C23.8029 28.9328 23.6507 28.9273 23.4929 28.9273C23.3351 28.9273 23.1829 28.9273 23.0251 28.9328C19.976 28.9772 16.9212 29.5759 13.8382 30.668C12.5644 28.7332 11.3583 26.8983 10.0394 24.8915C12.8913 22.9512 17.3608 21.8923 21.8979 21.6983C22.4277 21.6761 22.9575 21.6706 23.4929 21.6706C24.0284 21.6706 24.5582 21.6817 25.088 21.7038C29.6307 21.8923 34.1002 22.9512 36.9465 24.8915C35.622 26.8983 34.4158 28.7332 33.1477 30.668C30.0647 29.5759 27.0099 28.9827 23.9607 28.9328ZM11.0426 6.63059C11.9275 5.94872 13.7762 4.61269 15.0612 4.8289C15.157 4.84553 15.2472 4.8677 15.3374 4.90096C15.7038 5.03955 16.0137 5.29456 16.3125 5.54957C16.4985 5.71034 16.6844 5.87665 16.8028 6.09285C16.9775 6.41439 16.9719 6.80244 16.8761 7.1517C16.4477 8.70947 11.8543 12.8728 9.99432 12.4071C9.20525 12.263 8.7769 11.3372 8.66418 10.6276C8.40492 9.01437 9.88159 7.5453 11.0483 6.63613L11.0426 6.63059ZM8.34292 51.9612V29.6978C11.1892 36.1562 11.223 46.1625 8.34292 51.9612ZM25.0823 62.2669V62.2226C24.5525 62.2558 24.0227 62.2669 23.4873 62.278C22.9575 62.2725 22.4277 62.2558 21.8923 62.2226V62.2669C17.0733 62.1339 12.5982 61.0418 10.3832 59.0239C11.5555 57.6324 12.6433 56.1412 13.9565 54.8717C14.5089 54.3395 15.5685 54.0179 16.3181 54.1953C18.7135 54.7552 21.0976 55.0213 23.4817 54.9992C25.8658 55.0213 28.2499 54.7552 30.6452 54.1953C31.3948 54.0179 32.4544 54.3395 33.0068 54.8717C34.32 56.1412 35.4078 57.6324 36.5801 59.0239C34.3651 61.0362 29.89 62.1283 25.0711 62.2669H25.0823ZM38.6373 51.9612C35.7572 46.1625 35.7911 36.1507 38.6373 29.6978V51.9612Z" fill="#BD6CE3"/>
</g>
<defs>
<clipPath id="clip0_303_551">
<rect width="46.9971" height="69.9959" fill="white"/>
</clipPath>
</defs>
</svg>
