<svg width="206" height="139" viewBox="0 0 206 139" fill="none" xmlns="http://www.w3.org/2000/svg">
<path d="M118.425 120.12C108.989 120.3 99.5453 120.471 90.1084 120.66C89.898 120.664 89.693 120.779 89.4765 120.841C89.203 120.804 88.9339 120.726 88.6645 120.732C82.4878 120.833 76.3062 120.899 70.1384 121.078C66.6494 121.184 63.1465 121.018 59.6653 121.456C55.2971 121.209 50.9282 121.539 46.5604 121.615C46.5025 121.117 46.4196 120.616 46.3867 120.121C46.1484 116.484 44.505 113.601 41.652 111.45C32.6553 104.68 18.029 110.549 16.767 122.138C9.87225 121.3 6.00371 116.696 6.42989 109.71C7.02309 100.045 7.69942 90.3881 8.30838 80.7331C9.40715 63.1491 10.5051 45.5735 11.554 27.9843C11.9272 21.7563 16.6224 16.9574 22.8118 16.8154C35.7967 16.5175 48.7822 16.296 61.7729 16.0241C76.8768 15.7073 91.9843 15.3568 107.087 15.0484C119.96 14.7813 132.841 14.3539 145.71 14.3579C154.607 14.3593 161.19 18.5486 165.199 26.7549C171.602 39.8633 178.12 52.9157 184.584 65.9966C185.953 68.7665 187.324 71.528 188.649 74.3188C189.077 75.2194 189.658 75.8559 190.571 76.2892C192.686 77.2874 194.767 78.3753 196.86 79.4221C201.542 81.7535 203.876 85.4369 203.465 90.813C202.987 97.1575 202.651 103.508 202.15 109.842C201.757 114.796 199.217 117.51 194.382 118.369C193.175 118.583 191.945 118.618 190.724 118.729C181.018 118.924 171.312 119.111 161.606 119.306C157.003 119.374 152.393 119.433 147.791 119.501C148.606 115.184 148.027 111.181 144.994 107.841C139.374 101.648 129.156 101.841 122.847 108.195C119.557 111.502 118.25 115.54 118.44 120.138L118.425 120.12ZM113.078 20.8301C106.243 19.8966 100.409 24.7391 100.177 31.6347C99.7379 44.6143 98.8879 57.5855 98.2806 70.5648C98.0608 75.223 102.087 79.1148 106.785 79.014C117.864 78.7826 128.943 78.5595 140.023 78.328C143.197 78.2568 146.372 78.1855 149.545 78.1226C157.459 77.9549 165.375 77.694 173.283 77.6614C177.2 77.6412 180.901 73.5285 178.402 68.9971C175.834 64.3313 173.648 59.459 171.294 54.6711C166.834 45.6129 162.5 36.4827 157.872 27.5088C155.233 22.3863 150.682 20.0007 144.965 20.0389C139.946 20.0726 134.937 20.1752 129.923 20.3282C124.31 20.5042 118.685 20.3822 113.07 20.8209L113.078 20.8301ZM199.684 93.2639C200.186 88.4738 196.539 84.8161 191.461 84.937C182.493 85.1403 173.531 85.2848 164.565 85.4712C160.389 85.558 156.199 85.5331 152.042 85.8507C147.13 86.2262 143.51 90.5423 143.866 95.2344C144.178 99.3793 147.793 102.211 152.491 102.11C165.071 101.83 177.657 101.567 190.249 101.331C195.174 101.236 199.212 97.8368 199.692 93.2648L199.684 93.2639Z" fill="#FDFDFE"/>
<path d="M118.425 120.12C118.235 115.521 119.55 111.485 122.832 108.177C129.141 101.823 139.359 101.63 144.979 107.823C148.012 111.163 148.583 115.165 147.776 119.483C145.295 127.664 137.959 131.266 132.009 131.204C125.85 131.137 119.832 127.329 118.707 120.726C118.669 120.518 118.521 120.325 118.425 120.12ZM127.41 117.061C127.109 119.981 129.1 122.425 132.055 122.772C135.508 123.178 138.804 120.703 139.194 117.411C139.536 114.503 137.463 112.034 134.375 111.673C131.113 111.295 127.735 113.906 127.418 117.062L127.41 117.061Z" fill="#2B2D42"/>
<path d="M16.7596 122.129C18.0216 110.54 32.6479 104.671 41.6446 111.441C44.5059 113.593 46.141 116.475 46.3793 120.112C46.4114 120.616 46.4951 121.108 46.553 121.605C45.9934 124.914 44.8281 127.906 42.4696 130.41C36.9895 136.222 27.7487 137.279 21.3992 132.537C17.9973 130.007 16.5464 126.398 16.7596 122.129ZM30.5416 127.383C34.018 127.724 37.1403 125.307 37.4711 122.017C37.7491 119.239 35.6882 116.983 32.6432 116.695C29.2067 116.374 25.9484 118.887 25.663 122.063C25.416 124.785 27.539 127.09 30.5499 127.384L30.5416 127.383Z" fill="#2B2D42"/>
<path d="M59.6663 121.448C63.1475 121.01 66.6504 121.176 70.1394 121.069C76.3155 120.892 82.4888 120.824 88.6655 120.723C88.9349 120.717 89.204 120.796 89.4775 120.833C89.0974 126.882 84.6206 131.763 79.0546 133.682C74.3687 135.293 69.7525 135.089 65.4675 132.323C61.9074 130.023 59.9504 126.76 59.8678 122.427C59.86 122.095 59.7332 121.777 59.658 121.447L59.6663 121.448Z" fill="#2B2D42"/>
<path d="M161.6 119.28C171.306 119.085 181.012 118.898 190.718 118.703C190.05 123.476 184.624 129.328 177.974 130.355C171.571 131.348 165.922 128.934 163.032 123.726C162.259 122.341 161.877 120.826 161.6 119.28Z" fill="#2B2D42"/>
<path d="M113.077 20.8299C118.684 20.3903 124.309 20.5123 129.93 20.3371C134.944 20.1842 139.962 20.0825 144.972 20.0479C150.689 20.0097 155.24 22.3953 157.879 27.5178C162.507 36.4917 166.842 45.6135 171.301 54.6801C173.656 59.4596 175.841 64.3403 178.41 69.0061C180.908 73.5374 177.199 77.6494 173.291 77.6704C165.374 77.7021 157.467 77.9639 149.553 78.1316C146.378 78.2029 143.204 78.2658 140.03 78.337C139.813 77.8313 139.613 77.3274 139.378 76.8367C137.381 72.6623 135.366 68.4945 133.377 64.3125C127.905 52.7755 122.406 41.2443 117.005 29.6721C115.642 26.7587 113.936 23.9881 113.077 20.8383L113.077 20.8299Z" fill="#BD6CE3"/>
<path d="M113.078 20.8301C113.938 23.9716 115.644 26.7422 117.006 29.664C122.408 41.2361 127.906 52.7673 133.378 64.3043C135.358 68.4855 137.382 72.6541 139.379 76.8286C139.614 77.3192 139.813 77.8316 140.031 78.3289C128.952 78.5519 117.873 78.7834 106.793 79.0149C102.095 79.1156 98.0701 75.2154 98.289 70.5657C98.8963 57.5864 99.7454 44.6236 100.186 31.6355C100.418 24.74 106.243 19.8965 113.086 20.831L113.078 20.8301Z" fill="#2B2D42"/>
<path d="M199.683 93.264C199.204 97.8277 195.165 101.236 190.241 101.33C177.657 101.567 165.071 101.822 152.482 102.11C147.783 102.219 144.17 99.3785 143.858 95.2337C143.501 90.5415 147.113 86.2246 152.033 85.8499C156.191 85.5323 160.38 85.5572 164.556 85.4705C173.522 85.284 182.485 85.1311 191.452 84.9363C196.538 84.8246 200.185 88.4823 199.675 93.2632L199.683 93.264ZM155.864 88.9415C152.836 88.6547 150.162 90.711 149.914 93.5261C149.691 96.0216 151.453 98.2384 153.849 98.4685C156.91 98.7671 159.616 96.6378 159.866 93.7211C160.095 91.0906 158.51 89.1888 155.865 88.9331L155.864 88.9415ZM188.2 97.7362C191.155 98.0068 193.85 95.9019 194.148 93.0919C194.407 90.5747 192.565 88.4005 189.975 88.1843C187.209 87.9585 184.377 90.1681 184.107 92.786C183.846 95.3199 185.653 97.5075 188.208 97.737L188.2 97.7362Z" fill="#2B2D42"/>
<path d="M127.41 117.061C127.736 113.906 131.105 111.294 134.367 111.672C137.464 112.034 139.536 114.503 139.186 117.41C138.796 120.702 135.5 123.177 132.047 122.771C129.092 122.424 127.109 119.981 127.402 117.06L127.41 117.061Z" fill="#FDFDFE"/>
<path d="M30.5416 127.383C27.5307 127.089 25.4077 124.784 25.6547 122.063C25.9401 118.887 29.1975 116.382 32.6349 116.694C35.6891 116.975 37.7408 119.238 37.4628 122.016C37.1328 125.298 34.0105 127.715 30.5333 127.382L30.5416 127.383Z" fill="#FDFDFE"/>
<path d="M155.864 88.9415C158.51 89.1972 160.095 91.0906 159.865 93.7295C159.616 96.6378 156.91 98.7671 153.848 98.4769C151.444 98.246 149.682 96.0291 149.914 93.5345C150.17 90.7203 152.844 88.664 155.864 88.9499L155.864 88.9415Z" fill="#BD6CE3"/>
<path d="M188.2 97.7359C185.645 97.5064 183.829 95.318 184.099 92.7848C184.369 90.167 187.201 87.9574 189.967 88.1832C192.557 88.3994 194.408 90.5745 194.14 93.0908C193.85 95.9016 191.146 98.0057 188.192 97.7351L188.2 97.7359Z" fill="#BD6CE3"/>
</svg>
