<svg width="58" height="31" viewBox="0 0 58 31" fill="none" xmlns="http://www.w3.org/2000/svg">
<path d="M16.6655 29.1189C9.66663 29.1189 3.99474 22.913 3.99474 15.2551C3.99474 7.59732 9.66663 1.39141 16.6655 1.39141C18.3795 1.39141 20.0106 1.76447 21.4988 2.44001C19.3194 0.89736 16.73 0 13.9424 0C6.24322 0 0 6.83104 0 15.2551C0 23.6792 6.24322 30.5103 13.9424 30.5103C16.73 30.5103 19.324 29.6129 21.4988 28.0703C20.0106 28.7458 18.3795 29.1189 16.6655 29.1189Z" fill="#DCD5E8"/>
<path d="M10.5009 6.41761C10.5838 6.15546 10.5009 6.02438 10.2613 6.02438H9.68075L9.80976 5.4043H14.5279C15.2236 5.4043 15.7904 5.51016 16.2281 5.7219C16.6658 5.93363 17.0021 6.21595 17.2325 6.5638C17.4629 6.9167 17.6011 7.32505 17.6426 7.78886C17.6887 8.25266 17.6564 8.73663 17.5504 9.24581C17.4583 9.68441 17.3523 10.1432 17.2325 10.612C17.1127 11.0809 16.9607 11.5396 16.781 11.9883C16.6013 12.437 16.3847 12.8655 16.1313 13.2739C15.8779 13.6822 15.5738 14.0401 15.219 14.3477C14.9886 14.5443 14.6984 14.7157 14.3528 14.8619C14.0072 15.0081 13.6478 15.124 13.2792 15.2047C12.9106 15.2904 12.5466 15.3408 12.1919 15.361C11.8371 15.3811 11.5376 15.361 11.3026 15.3206C11.1367 15.2904 10.9755 15.2349 10.8142 15.1442C10.6529 15.0535 10.4963 14.9425 10.3442 14.8115C10.1876 14.9778 10.0217 15.0938 9.84202 15.1543C9.66232 15.2148 9.48723 15.245 9.31675 15.245H8.03125L10.5009 6.41257V6.41761ZM13.1088 6.00926L10.9524 13.7578C10.9156 13.8536 10.8787 13.9343 10.8465 14.0099C10.8142 14.0855 10.782 14.1611 10.7497 14.2367C10.9018 14.3678 11.1321 14.5039 11.4362 14.6451C11.8924 14.7661 12.3024 14.6905 12.671 14.4182C13.0397 14.146 13.3806 13.7326 13.6939 13.1781C14.0072 12.6336 14.2607 11.9933 14.4634 11.2523C14.6661 10.5112 14.855 9.72977 15.0255 8.90299C15.1407 8.34844 15.1914 7.88968 15.1729 7.51662C15.1545 7.1486 15.09 6.84612 14.9702 6.6243C14.8504 6.39744 14.6892 6.24116 14.4864 6.14538C14.2837 6.04959 14.0533 6.00421 13.7953 6.00421H13.0995L13.1088 6.00926Z" fill="#DCD5E8"/>
<path d="M20.0889 6.43273C20.135 6.30166 20.135 6.20082 20.0889 6.13025C20.0428 6.05967 19.9737 6.02438 19.8816 6.02438H19.278L19.407 5.4043H24.42C25.0282 5.4043 25.5212 5.47487 25.8944 5.61603C26.2676 5.75719 26.5487 5.93868 26.7376 6.15545C26.9265 6.37727 27.0417 6.6243 27.0832 6.8915C27.1246 7.16373 27.12 7.43596 27.0739 7.70819C26.9219 8.52489 26.5487 9.19035 25.9589 9.71465C25.3691 10.2339 24.6181 10.5465 23.7058 10.6523L24.0284 10.7078C24.2956 10.7733 24.5029 10.8893 24.6504 11.0607C24.7932 11.2271 24.8992 11.4287 24.9637 11.6505C25.0282 11.8774 25.0697 12.1244 25.0835 12.3866C25.1019 12.6538 25.1157 12.921 25.1296 13.1831C25.148 13.5108 25.2632 13.7175 25.4751 13.8032C25.6871 13.8889 26.0372 13.7679 26.5164 13.4352L26.6777 13.7024C26.4197 14.0048 26.1432 14.2569 25.8622 14.4687C25.5765 14.6804 25.3 14.8568 25.0236 14.998C24.7517 15.1392 24.4891 15.24 24.2403 15.3055C23.9915 15.3711 23.7749 15.4063 23.5952 15.4063C23.3971 15.4063 23.2128 15.3711 23.0423 15.3055C22.8719 15.24 22.729 15.1291 22.6184 14.9678C22.5079 14.8064 22.4203 14.5997 22.365 14.3477C22.3051 14.0956 22.2913 13.778 22.3236 13.3898C22.3374 13.1579 22.3466 12.9109 22.3466 12.6588C22.3466 12.4067 22.3374 12.1597 22.3051 11.9278C22.2775 11.6959 22.2314 11.4842 22.1669 11.3027C22.1024 11.1212 22.0149 10.9851 21.9043 10.9044C21.8444 10.859 21.7614 10.8288 21.6462 10.8187C21.5311 10.8086 21.4251 10.7985 21.3237 10.7885L20.3377 14.3174C20.2778 14.514 20.1857 14.6804 20.052 14.8165C19.9184 14.9526 19.7664 15.0635 19.5959 15.1543C19.4254 15.245 19.2319 15.3106 19.0292 15.3509C18.8218 15.3912 18.6237 15.4164 18.4256 15.4164C17.8681 15.4164 17.6423 15.1795 17.7529 14.7006L20.0935 6.42769L20.0889 6.43273ZM22.9041 6.00926C22.8258 6.01934 22.7613 6.04454 22.7198 6.08488C22.6783 6.12521 22.6369 6.20587 22.6046 6.31678L21.4988 10.1835H22.2821C22.4341 10.1835 22.6184 10.1482 22.8304 10.0776C23.0423 10.0071 23.2543 9.88102 23.4616 9.69953C23.669 9.51804 23.8717 9.26093 24.0606 8.9282C24.2495 8.59547 24.4016 8.16695 24.5121 7.64265C24.5536 7.44604 24.5674 7.24943 24.5582 7.05786C24.549 6.86629 24.5029 6.68984 24.4246 6.5386C24.3463 6.38232 24.2311 6.25629 24.079 6.1605C23.927 6.06471 23.7381 6.0143 23.5077 6.0143H22.9041V6.00926Z" fill="#DCD5E8"/>
<path d="M29.6036 6.37728C29.6497 6.23612 29.6497 6.14537 29.599 6.09496C29.5483 6.04959 29.4884 6.02438 29.4193 6.02438H28.7788L28.9079 5.4043H36.4688L36.326 6.07984H32.3128L31.2715 9.74994H34.8332L34.6949 10.4104H31.0826L29.9169 14.5594H34.2987L34.1558 15.2501H27.9357C27.6869 15.2501 27.5118 15.1644 27.4104 14.998C27.309 14.8316 27.2906 14.635 27.3505 14.4233L29.6036 6.37728Z" fill="#DCD5E8"/>
<path d="M54.761 5.4043H58.0001L57.8711 6.00926H57.4195C57.2997 6.00926 57.1984 6.03446 57.1154 6.07984C57.0325 6.12521 56.9634 6.25124 56.8989 6.45794L54.9868 13.1125C54.9407 13.289 54.9315 13.4453 54.9545 13.5713C54.9775 13.6973 55.0467 13.783 55.1526 13.8334C55.2586 13.8839 55.4014 13.8788 55.5765 13.8284C55.7562 13.778 55.9728 13.6671 56.2308 13.4957L56.3828 13.8032C56.088 14.1057 55.7931 14.3577 55.4982 14.5644C55.2033 14.7711 54.913 14.9425 54.632 15.0787C54.3509 15.2148 54.0883 15.3106 53.8487 15.3761C53.6091 15.4366 53.3972 15.4668 53.2175 15.4668C52.7797 15.4668 52.4895 15.3055 52.3466 14.9829C52.2038 14.6602 52.2361 14.146 52.4434 13.4402L54.1436 7.42084L49.1444 15.003H48.8495C48.7896 15.003 48.7297 14.993 48.6652 14.9678C48.6007 14.9425 48.5454 14.8972 48.4901 14.8215C48.4348 14.7459 48.3934 14.6401 48.3519 14.4989C48.3104 14.3577 48.2874 14.1662 48.2782 13.9242L47.951 7.96026L46.2509 14.0351C46.1956 14.2216 46.1817 14.3779 46.2094 14.5039C46.237 14.63 46.3568 14.6955 46.5642 14.6955H46.965L46.8452 15.2601H44.3894L44.5092 14.6955H44.8456C45.0437 14.6955 45.1957 14.6401 45.3017 14.5342C45.4077 14.4283 45.4998 14.2519 45.5689 14.0049L47.693 6.40752C47.7161 6.3319 47.7207 6.25124 47.7068 6.17058C47.6884 6.08487 47.6239 6.04454 47.4995 6.04454H46.9973L47.1309 5.40934H50.3838L50.6326 11.6405L54.7564 5.40934L54.761 5.4043Z" fill="#DCD5E8"/>
<path d="M24.4063 26.8904H18.5455C18.3382 26.8904 18.1953 26.8148 18.1078 26.6585C18.0202 26.5023 18.0064 26.3157 18.0709 26.0889L20.3471 18.0731C20.43 17.811 20.3563 17.6799 20.1351 17.6799H19.5315L19.6651 17.0447H22.9826C23.0932 17.0447 23.1623 17.085 23.1899 17.1657C23.2176 17.2463 23.2176 17.322 23.1899 17.3976L20.6742 26.1897H24.5584L24.4109 26.8955L24.4063 26.8904Z" fill="#DCD5E8"/>
<path d="M42.4081 26.8906H41.5235C41.2747 26.8906 41.0351 26.7898 40.8093 26.5881C40.5835 26.3865 40.3946 26.0185 40.2518 25.4841L38.0862 18.9555L36.2432 25.6504C36.1971 25.837 36.1787 25.9983 36.1925 26.1294C36.2064 26.2604 36.3169 26.326 36.5243 26.326H36.9482L36.8284 26.8906H34.3726L34.4924 26.326H34.8932C35.0729 26.326 35.2065 26.2756 35.2987 26.1697C35.3908 26.0638 35.4692 25.8924 35.5383 25.6504L37.6071 18.1237C37.6531 17.9926 37.6439 17.8867 37.584 17.8061C37.5241 17.7254 37.4366 17.6851 37.326 17.6851H36.9021L37.0357 17.0398H40.2241L42.4496 23.9616L44.0392 18.2245C44.1406 17.8565 44.053 17.675 43.7673 17.675H43.2144L43.3481 17.0398H45.9974L45.8638 17.675H45.3616C45.2003 17.675 45.0805 17.7204 45.0068 17.8111C44.9331 17.9019 44.8685 18.038 44.8086 18.2245L42.4127 26.8906H42.4081Z" fill="#DCD5E8"/>
<path d="M47.2829 18.058C47.3658 17.7958 47.2829 17.6648 47.0433 17.6648H46.4627L46.5917 17.0447H51.3099C52.0056 17.0447 52.5723 17.1505 53.0101 17.3623C53.4478 17.574 53.7841 17.8563 54.0145 18.2042C54.2449 18.5571 54.3831 18.9654 54.4246 19.4292C54.4706 19.893 54.4384 20.377 54.3324 20.8862C54.2403 21.3248 54.1343 21.7836 54.0145 22.2524C53.8947 22.7212 53.7427 23.18 53.563 23.6287C53.3833 24.0774 53.1667 24.5059 52.9133 24.9142C52.6599 25.3226 52.3558 25.6805 52.001 25.988C51.7706 26.1847 51.4804 26.3561 51.1348 26.5023C50.7892 26.6485 50.4298 26.7644 50.0612 26.8451C49.6926 26.9308 49.3286 26.9812 48.9738 27.0014C48.6191 27.0215 48.3196 27.0014 48.0846 26.961C47.9187 26.9308 47.7575 26.8753 47.5962 26.7846C47.4349 26.6938 47.2783 26.5829 47.1262 26.4519C46.9696 26.6182 46.8037 26.7342 46.624 26.7947C46.4443 26.8552 46.2692 26.8854 46.0987 26.8854H44.8132L47.2829 18.0529V18.058ZM49.8861 17.6496L47.7298 25.3982C47.6929 25.494 47.6561 25.5746 47.6238 25.6503C47.5916 25.7259 47.5593 25.8015 47.5271 25.8771C47.6791 26.0082 47.9095 26.1443 48.2136 26.2855C48.6697 26.4065 49.0798 26.3309 49.4484 26.0586C49.817 25.7864 50.158 25.373 50.4713 24.8184C50.7846 24.274 51.038 23.6337 51.2408 22.8926C51.4435 22.1516 51.6324 21.3702 51.8029 20.5434C51.9181 19.9888 51.9687 19.5301 51.9503 19.157C51.9319 18.789 51.8674 18.4865 51.7476 18.2647C51.6278 18.0378 51.4665 17.8815 51.2638 17.7858C51.0611 17.69 50.8307 17.6446 50.5727 17.6446H49.8769L49.8861 17.6496Z" fill="#DCD5E8"/>
<path d="M44.6474 13.5209C44.2143 13.7931 43.8779 13.904 43.6383 13.8586C43.3987 13.8133 43.2697 13.5915 43.2513 13.1982L42.8642 6.27645C42.8458 6.03446 42.7859 5.82777 42.6799 5.65636C42.574 5.49 42.4219 5.4043 42.2238 5.4043H40.8738L36.0543 14.025C35.9022 14.267 35.7686 14.4233 35.6534 14.4939C35.5382 14.5644 35.3862 14.5997 35.1881 14.5997H34.8287L34.6951 15.245H37.2016L37.3352 14.5997H37.0034C36.8053 14.5997 36.6947 14.5443 36.6625 14.4384C36.6348 14.3325 36.6671 14.2115 36.7639 14.0805L38.0678 11.6606H40.625L40.7125 14.1914C40.7171 14.3225 40.7402 14.4636 40.7724 14.6048C40.8047 14.751 40.86 14.8871 40.9383 15.0131C41.0166 15.1392 41.118 15.245 41.2424 15.3307C41.3714 15.4164 41.5327 15.4568 41.7308 15.4568C42.0902 15.4568 42.5417 15.3358 43.0854 15.0887C43.6291 14.8468 44.1958 14.4283 44.781 13.8385L44.6428 13.5158L44.6474 13.5209ZM40.0859 10.8187C40.2149 9.44746 40.0997 9.19035 39.2289 8.86771C40.261 8.54506 40.5098 8.28291 41.0857 6.9167C40.9567 8.28795 41.0719 8.54506 41.9427 8.86771C40.9106 9.19035 40.6618 9.4525 40.0859 10.8187Z" fill="#DCD5E8"/>
<path d="M34.6073 25.1613C34.1742 25.4335 33.8379 25.5444 33.5983 25.499C33.3587 25.4537 33.2297 25.2318 33.2112 24.8386L32.8242 17.9168C32.8058 17.6748 32.7459 17.4682 32.6399 17.2967C32.5339 17.1304 32.3819 17.0447 32.1838 17.0447H30.8337L26.0143 25.6654C25.8622 25.9074 25.7286 26.0637 25.6134 26.1342C25.4982 26.2048 25.3462 26.2401 25.148 26.2401H24.7886L24.655 26.8854H27.1615L27.2952 26.2401H26.9634C26.7653 26.2401 26.6547 26.1847 26.6225 26.0788C26.5948 25.9729 26.6271 25.8519 26.7238 25.7208L28.0278 23.301H30.5849L30.6725 25.8318C30.6771 25.9628 30.7001 26.104 30.7324 26.2452C30.7646 26.3914 30.8199 26.5275 30.8983 26.6535C30.9766 26.7795 31.0779 26.8854 31.2024 26.9711C31.3314 27.0568 31.4926 27.0971 31.6908 27.0971C32.0501 27.0971 32.5017 26.9761 33.0454 26.7291C33.5891 26.4871 34.1558 26.0687 34.7409 25.4789L34.6027 25.1562L34.6073 25.1613ZM30.0459 22.4591C30.1749 21.0878 30.0597 20.8307 29.1889 20.5081C30.2209 20.1854 30.4698 19.9233 31.0457 18.5571C30.9167 19.9283 31.0319 20.1854 31.9027 20.5081C30.8706 20.8307 30.6218 21.0929 30.0459 22.4591Z" fill="#DCD5E8"/>
<path d="M14.8042 10.3902C13.6754 10.7129 13.4035 10.975 12.7769 12.3412C12.9151 10.97 12.7907 10.7129 11.8416 10.3902C12.9704 10.0676 13.2422 9.80542 13.8689 8.43921C13.7306 9.81046 13.8551 10.0676 14.8042 10.3902Z" fill="#DCD5E8"/>
<path d="M51.5862 22.0306C50.4573 22.3532 50.1855 22.6154 49.5589 23.9816C49.6971 22.6103 49.5727 22.3532 48.6235 22.0306C49.7524 21.7079 50.0242 21.4458 50.6509 20.0796C50.5126 21.4508 50.637 21.7079 51.5862 22.0306Z" fill="#DCD5E8"/>
</svg>
